<?xml version="1.0"?>
<svg xmlns="http://www.w3.org/2000/svg" xmlns:xlink="http://www.w3.org/1999/xlink" version="1.1" id="Capa_1" x="0px" y="0px" viewBox="0 0 473.083 473.083" style="enable-background:new 0 0 473.083 473.083;" xml:space="preserve" width="512px" height="512px"><g><path d="M441.74,207.212C389.145,145.707,327.291,90.333,257.893,42.628c-1.23-0.846-2.511-1.584-3.815-2.267  c4.005-4.29,6.464-10.042,6.464-16.361c0-13.233-10.767-24-24-24s-24,10.767-24,24c0,6.318,2.458,12.07,6.463,16.36  c-1.304,0.683-2.586,1.422-3.816,2.267C145.791,90.334,83.937,145.708,31.343,207.212c-6.8,7.952-8.301,18.806-3.917,28.323  c4.4,9.553,13.661,15.487,24.169,15.487h21.98v216.061c0,3.313,2.686,6,6,6h313.85c3.313,0,6-2.687,6-6V251.022h22.062  c10.508,0,19.769-5.935,24.169-15.487C450.041,226.018,448.54,215.164,441.74,207.212z M236.542,12c6.617,0,12,5.383,12,12  s-5.383,12-12,12c-6.617,0-12-5.383-12-12S229.925,12,236.542,12z M161.666,251.022v13.663h-76.09v-13.663H161.666z   M311.336,415.318h76.09v8.218h-76.09V415.318z M311.336,403.318V296.903h76.09v106.415H311.336z M311.336,284.903v-8.218h76.09  v8.218H311.336z M299.336,461.083h-9.661V268.349c0-3.313-2.687-6-6-6h-94.348c-3.313,0-6,2.687-6,6v192.734h-9.661V251.022h125.67  V461.083z M277.675,461.083h-82.348V274.349h82.348V461.083z M85.576,276.686h76.09v8.218h-76.09V276.686z M85.576,296.903h76.09  v106.415h-76.09V296.903z M85.576,415.318h76.09v8.218h-76.09V415.318z M85.576,435.536h76.09v25.547h-76.09V435.536z   M311.336,461.083v-25.547h76.09v25.547H311.336z M387.426,264.686h-76.09v-13.663h76.09V264.686z M434.757,230.515  c-2.453,5.327-7.414,8.508-13.27,8.508H51.596c-5.855,0-10.816-3.181-13.27-8.508c-2.438-5.292-1.639-11.088,2.138-15.504  C92.377,154.301,153.45,99.63,221.987,52.517c4.353-2.992,9.454-4.488,14.555-4.488c5.101,0,10.202,1.496,14.555,4.488  C319.632,99.629,380.705,154.3,432.619,215.011C436.395,219.427,437.195,225.223,434.757,230.515z" data-original="#000000" class="active-path" data-old_color="#000000" fill="#B0B0CB"/><head class="active-path" style=""/></g> </svg>
