<?xml version="1.0"?>
<svg xmlns="http://www.w3.org/2000/svg" xmlns:xlink="http://www.w3.org/1999/xlink" version="1.1" id="Layer_1" x="0px" y="0px" viewBox="0 0 512 512" style="enable-background:new 0 0 512 512;" xml:space="preserve" width="512px" height="512px"><g><g>
	<g>
		<polygon points="459.605,335.26 277.62,76.368 328.842,17.687 316.499,6.914 280.196,48.503 288.004,2.756 271.853,0     260.311,67.63 252.292,67.63 240.749,0 224.598,2.756 232.306,47.92 197.311,6.978 184.857,17.623 235.033,76.327 54.135,335.281     67.566,344.664 221.924,123.7 172.022,284.312 187.667,289.173 248.11,94.641 248.11,286.742 264.493,286.742 264.493,92.326     335.979,289.534 351.381,283.951 295.875,130.827 446.202,344.683   " data-original="#000000" class="active-path" data-old_color="#000000" fill="#B0B0CB"/>
	</g>
</g><g>
	<g>
		
			<rect x="92.652" y="312.065" transform="matrix(0.5416 -0.8406 0.8406 0.5416 -215.994 244.4023)" width="46.91" height="16.383" data-original="#000000" class="active-path" data-old_color="#000000" fill="#B0B0CB"/>
	</g>
</g><g>
	<g>
		
			<rect x="132.893" y="312.058" transform="matrix(0.5417 -0.8406 0.8406 0.5417 -197.5391 278.1991)" width="46.913" height="16.384" data-original="#000000" class="active-path" data-old_color="#000000" fill="#B0B0CB"/>
	</g>
</g><g>
	<g>
		
			<rect x="173.106" y="312.072" transform="matrix(0.5416 -0.8406 0.8406 0.5416 -179.1213 312.0381)" width="46.91" height="16.383" data-original="#000000" class="active-path" data-old_color="#000000" fill="#B0B0CB"/>
	</g>
</g><g>
	<g>
		
			<rect x="213.345" y="312.06" transform="matrix(0.5417 -0.8406 0.8406 0.5417 -160.6682 345.8259)" width="46.913" height="16.384" data-original="#000000" class="active-path" data-old_color="#000000" fill="#B0B0CB"/>
	</g>
</g><g>
	<g>
		
			<rect x="388.302" y="296.817" transform="matrix(0.8406 -0.5417 0.5417 0.8406 -110.2792 265.8342)" width="16.384" height="46.913" data-original="#000000" class="active-path" data-old_color="#000000" fill="#B0B0CB"/>
	</g>
</g><g>
	<g>
		
			<rect x="348.089" y="296.809" transform="matrix(0.8406 -0.5416 0.5416 0.8406 -116.6783 244.0096)" width="16.383" height="46.91" data-original="#000000" class="active-path" data-old_color="#000000" fill="#B0B0CB"/>
	</g>
</g><g>
	<g>
		
			<rect x="307.854" y="296.792" transform="matrix(0.8406 -0.5416 0.5416 0.8406 -123.0818 222.2149)" width="16.383" height="46.91" data-original="#000000" class="active-path" data-old_color="#000000" fill="#B0B0CB"/>
	</g>
</g><g>
	<g>
		
			<rect x="271.745" y="296.816" transform="matrix(0.8406 -0.5416 0.5416 0.8406 -128.8494 202.6615)" width="16.383" height="46.91" data-original="#000000" class="active-path" data-old_color="#000000" fill="#B0B0CB"/>
	</g>
</g><g>
	<g>
		<polygon points="417.407,495.616 417.407,350.895 401.023,350.895 401.023,495.616 366.435,495.616 366.435,350.895     350.052,350.895 350.052,495.616 315.465,495.616 315.465,350.895 299.081,350.895 299.081,495.616 264.493,495.616     264.493,350.895 248.11,350.895 248.11,495.616 213.522,495.616 213.522,350.895 197.138,350.895 197.138,495.616     162.551,495.616 162.551,350.895 146.168,350.895 146.168,495.616 111.58,495.616 111.58,350.895 95.196,350.895 95.196,495.616     40.023,495.616 40.023,512 471.973,512 471.973,495.616   " data-original="#000000" class="active-path" data-old_color="#000000" fill="#B0B0CB"/>
	</g>
</g><g>
	<g>
		<rect x="487.857" y="495.614" width="19.056" height="16.384" data-original="#000000" class="active-path" data-old_color="#000000" fill="#B0B0CB"/>
	</g>
</g><g>
	<g>
		<rect x="5.087" y="495.614" width="19.056" height="16.384" data-original="#000000" class="active-path" data-old_color="#000000" fill="#B0B0CB"/>
	</g>
</g></g> </svg>
